<svg xmlns="http://www.w3.org/2000/svg" width="300" height="46" viewBox="0 0 530 60" preserveAspectRatio="xMinYMid meet"><style type="text/css">.st0{fill:#0CB0A5;}.st1{fill:#EE7A52;}.st2{fill:#979798;}</style><rect x="3.8" y="31.2" class="st0" width="18.8" height="28.8"/><rect y="17.5" class="st0" width="22.5" height="11.3"/><rect x="31.3" y="31.2" class="st0" width="18.8" height="28.8"/><rect x="31.3" y="17.5" class="st0" width="22.5" height="11.3"/><rect x="25" y="31.2" class="st1" width="3.8" height="28.8"/><rect x="25" y="17.5" class="st1" width="3.8" height="11.3"/><path class="st1" d="M33.5,1.6c-4.6,2.9-6.7,11.3-6.5,11.5c0.2,0.3,8.6,1.8,13.2-1.1s4.6-7.2,3.2-9.4C41.9,0.3,38.1-1.4,33.5,1.6z M34.8,3.6c3.1-2,5.3-0.8,6.2,0.6C41.8,5.5,42,8,38.8,10s-9.2,1.6-9.3,1.4C29.5,11.3,31.6,5.6,34.8,3.6z"/><path class="st1" d="M10.5,2.6C9.1,4.8,9.1,9.1,13.7,12s13,1.4,13.2,1.1C27,12.9,25,4.5,20.4,1.6S11.9,0.3,10.5,2.6z M24.2,11.4 C24.2,11.5,18.1,12,15,10s-2.9-4.5-2.1-5.8c0.9-1.3,3-2.6,6.2-0.6S24.3,11.3,24.2,11.4z"/><circle class="st1" cx="26.9" cy="13.1" r="3.1"/><path class="st0" d="M105.3,15.8c-1.6-1.8-3.7-3.2-6.2-4.3c-2.5-1.1-5.3-1.6-8.4-1.6c-3.1,0-6,0.6-8.5,1.7 c-2.5,1.1-4.7,2.7-6.5,4.7c-1.8,2-3.1,4.3-4.1,6.9c-1,2.6-1.4,5.4-1.4,8.3c0,3,0.5,5.8,1.4,8.4c1,2.6,2.3,4.9,4.1,6.9 c1.8,2,4,3.5,6.5,4.6c2.6,1.1,5.5,1.7,8.7,1.7c2.5,0,4.9-0.2,7-0.7s4-1.1,5.5-2v-15H91.6v-6.4H111v26.1c-2.8,1.5-5.9,2.7-9.3,3.5 c-3.3,0.8-7,1.2-10.9,1.2c-4.2,0-8.1-0.7-11.6-2.1c-3.5-1.4-6.5-3.3-9.1-5.9c-2.5-2.5-4.5-5.5-5.9-9c-1.4-3.5-2.1-7.3-2.1-11.4 c0-4.2,0.7-8,2.2-11.5c1.4-3.5,3.4-6.4,6-8.9c2.6-2.5,5.6-4.4,9.1-5.7c3.5-1.4,7.3-2.1,11.4-2.1c4.3,0,8.1,0.6,11.5,1.9 c3.4,1.3,6.2,3,8.4,5.1L105.3,15.8z"/><path class="st0" d="M131.9,9.5c0,1.3-0.5,2.4-1.4,3.3c-0.9,0.9-2,1.3-3.4,1.3s-2.4-0.4-3.3-1.3c-0.9-0.9-1.4-2-1.4-3.2 c0-1.3,0.5-2.4,1.4-3.3c0.9-0.9,2-1.3,3.3-1.3s2.4,0.4,3.4,1.3C131.4,7.1,131.9,8.2,131.9,9.5z M130.7,58.5h-7.1v-36h7.1V58.5z"/><path class="st0" d="M160.6,28.3h-8.4v30.2h-7.1V28.3h-7.1v-5.9h7.1V15c0-2.1,0.2-4.1,0.7-5.9c0.5-1.8,1.3-3.4,2.4-4.7 c1.1-1.3,2.5-2.4,4.2-3.1c1.7-0.8,3.8-1.1,6.2-1.1c1.7,0,3.2,0.2,4.5,0.5l-0.8,6.2c-0.6-0.2-1.1-0.3-1.7-0.4 c-0.6-0.1-1.2-0.2-1.9-0.2c-1.4,0-2.5,0.2-3.3,0.7c-0.8,0.5-1.5,1.1-1.9,1.9c-0.5,0.8-0.8,1.7-0.9,2.8c-0.2,1-0.2,2.1-0.2,3.2v7.5 h8.4V28.3z"/><path class="st0" d="M184.1,28.3h-9.6v18.7c0,2.2,0.4,3.7,1.2,4.7c0.8,0.9,2.1,1.4,3.9,1.4c0.7,0,1.4-0.1,2.1-0.2 c0.8-0.1,1.4-0.3,2.1-0.6l0.2,5.9c-0.9,0.3-1.8,0.5-2.9,0.7c-1,0.2-2.1,0.3-3.2,0.3c-3.4,0-6-0.9-7.8-2.8c-1.8-1.9-2.7-4.7-2.7-8.4 V28.3h-6.9v-5.9h6.9V12.1h7.1v10.3h9.6V28.3z"/><path class="st1" d="M219.1,14.7c-1.1-1.5-2.5-2.7-4.3-3.6c-1.8-0.9-3.9-1.4-6.2-1.4c-1.2,0-2.4,0.2-3.7,0.5 c-1.2,0.3-2.4,0.9-3.4,1.6c-1,0.7-1.8,1.6-2.5,2.7c-0.6,1.1-1,2.4-1,3.9c0,1.5,0.3,2.7,0.9,3.7c0.6,1,1.4,1.8,2.4,2.5 s2.2,1.3,3.5,1.7c1.3,0.5,2.8,1,4.3,1.5c1.8,0.6,3.7,1.2,5.5,1.9c1.9,0.7,3.6,1.6,5.1,2.8c1.5,1.2,2.8,2.6,3.7,4.4 c1,1.7,1.4,4,1.4,6.7c0,2.8-0.5,5.2-1.6,7.3c-1,2.1-2.4,3.8-4.1,5.1c-1.7,1.3-3.7,2.3-6,3c-2.3,0.7-4.6,1-7,1c-3.4,0-6.7-0.7-9.8-2 c-3.2-1.3-5.8-3.3-7.9-5.9l5.9-4.9c1.3,1.9,3,3.4,5.1,4.6c2.1,1.2,4.4,1.7,6.9,1.7c1.3,0,2.5-0.2,3.8-0.5c1.3-0.4,2.4-0.9,3.5-1.7 c1-0.8,1.9-1.7,2.5-2.9c0.7-1.1,1-2.5,1-4.1c0-1.6-0.3-3-1-4.1s-1.6-2-2.8-2.8c-1.2-0.8-2.5-1.4-4.1-1.9c-1.5-0.5-3.2-1.1-4.9-1.6 c-1.7-0.5-3.4-1.1-5.1-1.9s-3.2-1.7-4.5-2.8c-1.3-1.1-2.4-2.5-3.2-4.2c-0.8-1.7-1.2-3.7-1.2-6.2c0-2.7,0.5-5,1.6-6.9 c1.1-1.9,2.5-3.5,4.3-4.8c1.7-1.3,3.7-2.2,5.9-2.8c2.2-0.6,4.4-0.9,6.7-0.9c3.1,0,6.1,0.6,8.8,1.7c2.7,1.1,4.9,2.6,6.6,4.5 L219.1,14.7z"/><path class="st1" d="M253.1,28.3h-9.6v18.7c0,2.2,0.4,3.7,1.2,4.7c0.8,0.9,2.1,1.4,3.9,1.4c0.7,0,1.4-0.1,2.1-0.2 c0.8-0.1,1.4-0.3,2.1-0.6l0.2,5.9c-0.9,0.3-1.8,0.5-2.9,0.7c-1,0.2-2.1,0.3-3.2,0.3c-3.4,0-6-0.9-7.8-2.8c-1.8-1.9-2.7-4.7-2.7-8.4 V28.3h-6.9v-5.9h6.9V12.1h7.1v10.3h9.6V28.3z"/><path class="st1" d="M297.6,40.4c0,2.8-0.5,5.3-1.5,7.7c-1,2.3-2.4,4.3-4.1,6c-1.7,1.7-3.8,3-6.2,4c-2.4,0.9-4.9,1.4-7.7,1.4 c-2.7,0-5.3-0.5-7.7-1.4c-2.4-0.9-4.4-2.3-6.2-4c-1.7-1.7-3.1-3.7-4.1-6c-1-2.3-1.5-4.9-1.5-7.7c0-2.8,0.5-5.3,1.5-7.6 c1-2.3,2.3-4.3,4.1-6c1.7-1.7,3.8-3,6.2-3.9c2.4-0.9,4.9-1.4,7.7-1.4c2.7,0,5.3,0.5,7.7,1.4c2.4,0.9,4.4,2.2,6.2,3.9s3.1,3.7,4.1,6 C297.1,35.1,297.6,37.6,297.6,40.4z M290.2,40.5c0-1.7-0.3-3.4-0.8-4.9c-0.5-1.6-1.3-2.9-2.3-4.1c-1-1.2-2.3-2.1-3.8-2.8 c-1.5-0.7-3.2-1.1-5.1-1.1c-1.9,0-3.6,0.4-5.1,1.1c-1.5,0.7-2.8,1.7-3.8,2.8c-1,1.2-1.8,2.6-2.3,4.1c-0.5,1.6-0.8,3.2-0.8,4.9 s0.3,3.4,0.8,4.9c0.5,1.6,1.3,3,2.3,4.2c1,1.2,2.3,2.2,3.8,2.9c1.5,0.7,3.2,1.1,5.1,1.1c1.9,0,3.6-0.4,5.1-1.1 c1.5-0.7,2.8-1.7,3.8-2.9c1-1.2,1.8-2.6,2.3-4.2C289.9,43.8,290.2,42.2,290.2,40.5z"/><path class="st1" d="M307.4,26.5c-0.1-1.5-0.1-2.9-0.2-4h6.8c0.1,0.9,0.2,2,0.2,3.2c0,1.2,0.1,2.2,0.1,2.9h0.2 c1-2.1,2.5-3.8,4.4-5.1c2-1.3,4.1-1.9,6.6-1.9c1.1,0,2.1,0.1,2.8,0.3l-0.3,6.6c-1-0.3-2.1-0.4-3.3-0.4c-1.7,0-3.2,0.3-4.5,1 c-1.3,0.6-2.3,1.5-3.2,2.5c-0.8,1.1-1.5,2.3-1.9,3.7c-0.4,1.4-0.6,2.8-0.6,4.4v18.9h-7.1V30.2C307.5,29.3,307.5,28,307.4,26.5z"/><path class="st1" d="M367.3,40.2c0,0.4,0,0.8,0,1.2s0,0.8-0.1,1.2h-28.7c0,1.5,0.4,2.9,1,4.3c0.6,1.3,1.5,2.5,2.5,3.5 s2.3,1.7,3.7,2.3c1.4,0.6,2.9,0.8,4.4,0.8c2.4,0,4.5-0.5,6.3-1.6c1.8-1.1,3.2-2.4,4.2-3.9l5,4c-1.9,2.6-4.2,4.4-6.8,5.6 c-2.6,1.2-5.5,1.8-8.7,1.8c-2.7,0-5.3-0.5-7.6-1.4c-2.3-0.9-4.3-2.2-6-3.8s-3-3.6-4-6c-1-2.3-1.4-4.9-1.4-7.8 c0-2.8,0.5-5.4,1.4-7.7c0.9-2.4,2.2-4.4,3.9-6s3.7-3,5.9-3.9c2.3-0.9,4.7-1.4,7.4-1.4c2.6,0,5,0.4,7.2,1.3c2.2,0.9,4,2.1,5.5,3.7 c1.5,1.6,2.7,3.6,3.5,5.9C366.9,34.7,367.3,37.3,367.3,40.2z M360,37.3c-0.1-1.4-0.3-2.7-0.7-4c-0.4-1.2-1.1-2.3-1.9-3.2 s-1.9-1.6-3.1-2.2c-1.2-0.5-2.7-0.8-4.4-0.8c-1.5,0-3,0.3-4.3,0.8c-1.3,0.5-2.5,1.3-3.5,2.2s-1.8,2-2.4,3.2c-0.6,1.2-1,2.6-1.1,4 H360z"/><path class="st2" d="M378.1,54.9c0,1.1-0.4,2-1.1,2.9s-1.7,1.3-3,1.3s-2.2-0.4-3-1.3s-1.1-1.8-1.1-2.9c0-1.1,0.4-2,1.1-2.8 s1.7-1.3,3-1.3s2.2,0.4,3,1.3S378.1,53.8,378.1,54.9z"/><path class="st2" d="M407.5,31.1c-0.9-1.4-2.1-2.5-3.8-3.4c-1.6-0.9-3.4-1.3-5.4-1.3c-2.1,0-4,0.4-5.6,1.1c-1.7,0.7-3.1,1.7-4.3,3 c-1.2,1.3-2.1,2.8-2.7,4.6c-0.6,1.7-1,3.6-1,5.7c0,2,0.3,3.9,1,5.6c0.6,1.7,1.5,3.2,2.7,4.5c1.2,1.3,2.6,2.3,4.3,3s3.5,1.1,5.6,1.1 c2.3,0,4.2-0.4,5.8-1.3c1.6-0.9,2.9-2,3.9-3.3l3.9,2.9c-1.5,1.9-3.4,3.4-5.6,4.5c-2.2,1.1-4.9,1.7-7.9,1.7c-2.9,0-5.5-0.5-7.8-1.4 c-2.3-0.9-4.3-2.2-6-3.9c-1.6-1.7-2.9-3.6-3.8-5.9s-1.4-4.8-1.4-7.4c0-2.7,0.5-5.2,1.4-7.4c0.9-2.3,2.2-4.3,3.8-5.9 c1.6-1.7,3.6-3,6-3.9c2.3-0.9,4.9-1.4,7.8-1.4c2.4,0,4.8,0.5,7.3,1.6c2.5,1,4.4,2.6,6,4.6L407.5,31.1z"/><path class="st2" d="M451.3,40.7c0,2.7-0.5,5.2-1.4,7.4c-0.9,2.3-2.2,4.3-3.9,5.9s-3.7,3-6,3.9c-2.3,0.9-4.9,1.4-7.7,1.4 c-2.7,0-5.3-0.5-7.6-1.4c-2.3-0.9-4.3-2.2-6-3.9s-3-3.6-3.9-5.9c-0.9-2.3-1.4-4.8-1.4-7.4c0-2.7,0.5-5.2,1.4-7.4 c0.9-2.3,2.2-4.3,3.9-5.9c1.7-1.7,3.7-3,6-3.9c2.3-0.9,4.9-1.4,7.6-1.4c2.8,0,5.3,0.5,7.7,1.4c2.3,0.9,4.3,2.2,6,3.9 c1.7,1.7,3,3.6,3.9,5.9C450.8,35.6,451.3,38,451.3,40.7z M445.8,40.7c0-2-0.3-3.8-1-5.6c-0.6-1.7-1.5-3.3-2.7-4.6 c-1.2-1.3-2.6-2.3-4.3-3.1c-1.7-0.8-3.5-1.1-5.6-1.1c-2.1,0-3.9,0.4-5.6,1.1c-1.6,0.8-3.1,1.8-4.2,3.1c-1.2,1.3-2.1,2.8-2.7,4.6 c-0.6,1.7-1,3.6-1,5.6c0,2,0.3,3.8,1,5.6c0.6,1.7,1.5,3.3,2.7,4.6c1.2,1.3,2.6,2.3,4.2,3s3.5,1.1,5.6,1.1c2.1,0,4-0.4,5.6-1.1 s3.1-1.7,4.3-3c1.2-1.3,2.1-2.8,2.7-4.6C445.5,44.6,445.8,42.7,445.8,40.7z"/><path class="st2" d="M460,54.9c0,1.1-0.4,2-1.1,2.9s-1.7,1.3-3,1.3s-2.2-0.4-3-1.3s-1.1-1.8-1.1-2.9c0-1.1,0.4-2,1.1-2.8 s1.7-1.3,3-1.3s2.2,0.4,3,1.3S460,53.8,460,54.9z"/><path class="st2" d="M489.4,58.5c-0.1-1-0.2-2-0.2-3.2c-0.1-1.2-0.1-2.1-0.1-2.9H489c-1,2.1-2.7,3.8-4.9,5.1s-4.7,1.9-7.2,1.9 c-4.5,0-7.9-1.3-10.1-4c-2.3-2.7-3.4-6.2-3.4-10.6V22.9h5.2v19.7c0,1.9,0.2,3.6,0.5,5.1s0.8,2.8,1.6,3.9c0.7,1.1,1.7,1.9,3,2.5 c1.2,0.6,2.8,0.9,4.7,0.9c1.4,0,2.7-0.3,4-0.8c1.3-0.6,2.4-1.4,3.5-2.5c1-1.1,1.8-2.6,2.4-4.3c0.6-1.7,0.9-3.8,0.9-6.2V22.9h5.2 v27.7c0,1,0,2.2,0.1,3.7c0,1.5,0.1,2.9,0.2,4.1H489.4z"/><path class="st2" d="M504,39h0.2l16.4-16h7.4l-17.9,16.3l19.8,19.3h-7.6l-18.1-18.7H504v18.7h-5.2V1.1h5.2V39z"/></svg>
